<svg xmlns="http://www.w3.org/2000/svg" xmlns:xlink="http://www.w3.org/1999/xlink" width="1080" zoomAndPan="magnify" viewBox="0 0 810 809.999993" height="1080" preserveAspectRatio="xMidYMid meet" version="1.0"><path fill="#4b17b8" d="M 64.269531 294.828125 C 65.335938 263.097656 73.382812 231.113281 90.035156 203.894531 C 104.75 179.839844 136.394531 157.453125 162.714844 147.597656 C 200.910156 133.289062 236.125 147.9375 251.304688 185.53125 C 261.394531 210.527344 266.371094 239.058594 270.75 265.558594 C 274.460938 288.003906 276.742188 311.832031 267.984375 332.828125 C 259.066406 354.210938 240.007812 369.515625 220.820312 382.5 C 217.351562 384.851562 249.445312 439.960938 252.699219 445.285156 C 264.960938 465.328125 278.792969 484.414062 294.015625 502.3125 C 309.601562 520.640625 326.644531 537.726562 344.953125 553.332031 C 359.355469 565.609375 374.449219 583.519531 393.753906 587.820312 C 405.179688 590.363281 414.246094 584.714844 421.839844 576.734375 C 444.070312 553.371094 466.800781 546.417969 498.628906 553.867188 C 520 558.867188 539.933594 568.253906 559.652344 577.65625 C 577.542969 586.183594 598.492188 592.859375 613.359375 606.339844 C 639.554688 630.085938 631.191406 669.765625 615.226562 696.714844 C 599.027344 724.078125 572.109375 744.710938 542.625 755.066406 C 503.394531 768.84375 459.714844 766.339844 420.015625 753.988281 C 380.316406 741.636719 344.136719 719.945312 310.320312 695.753906 C 272.402344 668.625 236.988281 637.917969 205.191406 603.808594 C 150.78125 545.441406 99.375 469.625 76.523438 388.960938 C 67.773438 358.0625 63.207031 326.445312 64.269531 294.828125 Z M 398.75 106.449219 C 383.441406 105.152344 370.417969 94.519531 370.417969 78.117188 C 370.417969 63.734375 383.484375 48.496094 398.75 49.789062 C 425.332031 52.039062 451.765625 57.078125 477.316406 64.738281 C 571.1875 92.882812 653.253906 154.773438 701.734375 240.566406 C 740.960938 309.992188 758.53125 393.804688 748.945312 473.175781 C 747.101562 488.4375 737.457031 501.503906 720.617188 501.503906 C 706.621094 501.503906 690.449219 488.390625 692.285156 473.175781 C 693.652344 461.871094 694.410156 450.507812 694.625 439.121094 C 694.789062 430.375 694.636719 421.617188 694.179688 412.878906 C 693.929688 408.117188 693.589844 403.355469 693.160156 398.605469 C 692.890625 395.585938 692.570312 392.574219 692.234375 389.5625 C 691.117188 379.585938 692.648438 392.0625 691.820312 386.121094 C 678.636719 291.84375 625.578125 206.386719 544.488281 156.285156 C 512.894531 136.769531 486.246094 125.550781 450.558594 116.066406 C 438.351562 112.824219 425.980469 110.15625 413.503906 108.171875 C 409.40625 107.523438 404.984375 107.089844 412.300781 107.914062 C 410.300781 107.6875 408.304688 107.40625 406.304688 107.183594 C 403.789062 106.90625 401.269531 106.660156 398.75 106.449219 Z M 387.152344 215.402344 C 388.734375 215.519531 390.316406 215.675781 391.894531 215.820312 C 392.953125 215.917969 394.003906 216.082031 395.0625 216.167969 C 400.644531 216.617188 388.695312 215.09375 393.335938 215.917969 C 401.386719 217.339844 409.390625 218.644531 417.347656 220.5625 C 427.550781 223.015625 437.609375 226.046875 447.46875 229.640625 C 457.257812 233.203125 465.464844 236.816406 477.542969 243.453125 C 533.921875 274.445312 572.511719 329.074219 583.832031 393.699219 C 586.023438 406.226562 586.917969 421.503906 586.609375 436.082031 C 586.496094 441.417969 586.222656 446.746094 585.773438 452.0625 C 585.570312 454.429688 585.300781 456.792969 585.0625 459.15625 C 584.382812 465.886719 585.574219 455.675781 585.222656 458.15625 C 583.066406 473.285156 588.9375 488.589844 605.007812 493.007812 C 618.292969 496.65625 637.683594 488.464844 639.859375 473.222656 C 649.25 407.335938 637.253906 338.722656 600.589844 282.414062 C 563.855469 225.996094 506.746094 186.496094 442.199219 168.46875 C 424.28125 163.464844 405.707031 160.140625 387.148438 158.742188 C 371.875 157.589844 358.820312 172.585938 358.820312 187.070312 C 358.824219 203.359375 371.832031 214.246094 387.152344 215.402344 Z M 378.027344 320.171875 C 384.460938 320.886719 372.421875 319.019531 376.28125 319.933594 C 378.574219 320.476562 380.953125 320.746094 383.265625 321.234375 C 390.148438 322.6875 396.9375 324.621094 403.5625 326.996094 C 408.46875 328.75 416.339844 332.339844 424.570312 337.320312 C 433.367188 342.640625 440.234375 348.15625 447.613281 355.800781 C 463.953125 372.734375 473.761719 394.050781 477.984375 417.058594 C 478.90625 422.09375 478.925781 422.726562 479.269531 428.988281 C 479.492188 433.089844 479.558594 437.203125 479.453125 441.3125 C 479.359375 444.902344 479.023438 448.453125 478.792969 452.027344 C 478.289062 459.808594 479.679688 446.691406 478.789062 452.316406 C 476.398438 467.410156 482.664062 482.796875 498.574219 487.167969 C 512.046875 490.867188 531.015625 482.582031 533.425781 467.382812 C 541.9375 413.679688 527.273438 359.082031 490.296875 318.527344 C 461.351562 286.792969 420.292969 268.21875 378.027344 263.515625 C 362.796875 261.820312 349.695312 277.75 349.695312 291.847656 C 349.695312 308.5625 362.75 318.46875 378.027344 320.171875 Z M 378.027344 320.171875 " fill-opacity="1" fill-rule="nonzero"/></svg>