<svg xmlns="http://www.w3.org/2000/svg" xmlns:xlink="http://www.w3.org/1999/xlink" width="1080" zoomAndPan="magnify" viewBox="0 0 810 809.999993" height="1080" preserveAspectRatio="xMidYMid meet" version="1.0"><defs><clipPath id="3f2c3a0d72"><path d="M 50 66 L 745 66 L 745 759.644531 L 50 759.644531 Z M 50 66 " clip-rule="nonzero"/></clipPath></defs><g clip-path="url(#3f2c3a0d72)"><path fill="#00adee" d="M 734.375 86.5 C 733.214844 81.417969 729.25 77.449219 724.167969 76.292969 C 609.171875 50.164062 502.460938 75.941406 431.390625 147.011719 L 397.066406 181.335938 L 261.492188 156.445312 C 257.648438 155.738281 253.6875 156.730469 250.625 159.160156 L 96.253906 281.71875 C 92.558594 284.652344 90.65625 289.296875 91.234375 293.976562 C 91.808594 298.660156 94.78125 302.707031 99.078125 304.65625 L 219.203125 359.195312 L 182.015625 396.386719 C 176.726562 401.671875 176.726562 410.25 182.015625 415.539062 L 224.3125 457.835938 L 184.796875 497.351562 C 179.507812 502.640625 179.507812 511.214844 184.796875 516.507812 L 294.160156 625.871094 C 296.699219 628.410156 300.144531 629.835938 303.738281 629.835938 C 307.328125 629.835938 310.773438 628.410156 313.3125 625.871094 L 352.832031 586.355469 L 395.125 628.648438 C 397.667969 631.191406 401.113281 632.617188 404.703125 632.617188 C 408.296875 632.617188 411.738281 631.191406 414.28125 628.648438 L 451.46875 591.460938 L 506.007812 711.589844 C 507.960938 715.886719 512.003906 718.859375 516.6875 719.433594 C 517.242188 719.503906 517.792969 719.535156 518.34375 719.535156 C 522.445312 719.535156 526.363281 717.671875 528.949219 714.414062 L 651.507812 560.042969 C 653.9375 556.980469 654.925781 553.019531 654.222656 549.175781 L 629.328125 413.601562 L 663.65625 379.277344 C 734.726562 308.207031 760.5 201.492188 734.375 86.5 Z M 130.453125 289.152344 L 262.652344 184.199219 L 373.796875 204.605469 L 239.664062 338.738281 Z M 303.738281 597.140625 L 213.527344 506.929688 L 243.46875 476.992188 L 333.675781 567.203125 Z M 626.46875 548.015625 L 521.515625 680.214844 L 471.929688 571 L 606.0625 436.871094 Z M 404.703125 599.917969 L 210.75 405.964844 L 450.546875 166.164062 C 513.1875 103.527344 607.292969 79.945312 709.769531 100.898438 C 730.722656 203.378906 707.144531 297.480469 644.503906 360.121094 Z M 551.742188 187.1875 C 532.582031 187.1875 514.566406 194.648438 501.015625 208.199219 C 473.042969 236.171875 473.042969 281.683594 501.015625 309.652344 C 514.566406 323.203125 532.582031 330.664062 551.742188 330.664062 C 570.902344 330.664062 588.921875 323.203125 602.472656 309.652344 C 616.019531 296.101562 623.484375 278.089844 623.484375 258.925781 C 623.484375 239.761719 616.019531 221.746094 602.472656 208.195312 C 588.921875 194.648438 570.902344 187.1875 551.742188 187.1875 Z M 583.316406 290.5 C 565.90625 307.910156 537.578125 307.90625 520.167969 290.5 C 502.757812 273.089844 502.757812 244.761719 520.167969 227.351562 C 528.875 218.648438 540.308594 214.292969 551.742188 214.292969 C 563.175781 214.292969 574.613281 218.648438 583.316406 227.351562 C 600.726562 244.761719 600.726562 273.089844 583.316406 290.5 Z M 194.007812 635.8125 L 135.992188 693.828125 C 133.347656 696.472656 129.878906 697.796875 126.414062 697.796875 C 122.949219 697.796875 119.484375 696.472656 116.839844 693.828125 C 111.550781 688.539062 111.550781 679.964844 116.839844 674.671875 L 174.855469 616.660156 C 180.148438 611.371094 188.722656 611.375 194.011719 616.660156 C 199.296875 621.949219 199.296875 630.523438 194.007812 635.8125 Z M 269.539062 666.835938 L 211.523438 724.851562 C 208.878906 727.496094 205.410156 728.820312 201.945312 728.820312 C 198.480469 728.820312 195.015625 727.496094 192.371094 724.851562 C 187.082031 719.5625 187.082031 710.988281 192.371094 705.695312 L 250.382812 647.683594 C 255.675781 642.394531 264.246094 642.394531 269.539062 647.683594 C 274.828125 652.972656 274.828125 661.546875 269.539062 666.835938 Z M 345.070312 678.707031 C 350.359375 683.996094 350.359375 692.574219 345.070312 697.863281 L 287.054688 755.878906 C 284.410156 758.523438 280.945312 759.84375 277.476562 759.84375 C 274.011719 759.84375 270.546875 758.523438 267.902344 755.878906 C 262.613281 750.589844 262.613281 742.011719 267.902344 736.722656 L 325.914062 678.707031 C 331.207031 673.417969 339.78125 673.417969 345.070312 678.707031 Z M 162.984375 560.285156 L 104.96875 618.296875 C 102.324219 620.941406 98.859375 622.265625 95.390625 622.265625 C 91.925781 622.265625 88.460938 620.941406 85.816406 618.296875 C 80.527344 613.007812 80.527344 604.433594 85.816406 599.144531 L 143.832031 541.128906 C 149.121094 535.839844 157.695312 535.839844 162.984375 541.128906 C 168.273438 546.417969 168.273438 554.996094 162.984375 560.285156 Z M 131.960938 484.753906 L 73.945312 542.769531 C 71.300781 545.414062 67.832031 546.738281 64.367188 546.738281 C 60.902344 546.738281 57.4375 545.414062 54.789062 542.769531 C 49.5 537.480469 49.5 528.90625 54.789062 523.613281 L 112.804688 465.597656 C 118.097656 460.308594 126.667969 460.308594 131.960938 465.597656 C 137.25 470.886719 137.25 479.464844 131.960938 484.753906 Z M 131.960938 484.753906 " fill-opacity="1" fill-rule="nonzero"/></g></svg>