<svg xmlns="http://www.w3.org/2000/svg" xmlns:xlink="http://www.w3.org/1999/xlink" width="1080" zoomAndPan="magnify" viewBox="0 0 810 809.999993" height="1080" preserveAspectRatio="xMidYMid meet" version="1.0"><defs><clipPath id="1227823270"><path d="M 91.289062 13.082031 L 773.039062 13.082031 L 773.039062 796 L 91.289062 796 Z M 91.289062 13.082031 " clip-rule="nonzero"/></clipPath></defs><g clip-path="url(#1227823270)"><path fill="#00adee" d="M 722.640625 467.578125 C 711.796875 467.578125 701.039062 471.164062 692.339844 477.675781 L 566.15625 572.324219 C 558.050781 555.242188 540.765625 543.328125 520.644531 543.328125 L 471.265625 543.328125 C 462.328125 543.328125 453.527344 542.277344 444.894531 540.398438 L 444.894531 511.765625 L 486.972656 480.203125 L 558.515625 480.203125 C 625.632812 480.203125 685.964844 442.921875 715.976562 382.890625 L 733.925781 346.972656 C 735.882812 343.058594 735.667969 338.410156 733.371094 334.6875 C 731.074219 330.964844 727.023438 328.703125 722.640625 328.703125 L 646.890625 328.703125 C 579.777344 328.703125 519.441406 365.984375 489.433594 426.015625 L 472.972656 458.941406 L 444.894531 480.113281 L 444.894531 441.050781 C 469.585938 436.015625 489.082031 416.523438 494.117188 391.828125 L 495.394531 391.828125 C 502.363281 391.828125 508.019531 386.183594 508.019531 379.203125 L 508.019531 330.785156 C 514.972656 307.304688 527.511719 285.019531 544.476562 266.324219 C 569.816406 238.421875 583.765625 202.277344 583.765625 164.578125 C 583.765625 81.042969 515.808594 13.082031 432.269531 13.082031 C 348.730469 13.082031 280.769531 81.042969 280.769531 164.578125 C 280.769531 202.277344 294.71875 238.421875 320.058594 266.324219 C 337.027344 285.019531 349.5625 307.304688 356.519531 330.785156 L 356.519531 379.203125 C 356.519531 386.183594 362.175781 391.828125 369.144531 391.828125 L 370.417969 391.828125 C 375.457031 416.523438 394.949219 436.015625 419.644531 441.050781 L 419.644531 480.203125 L 391.742188 459.269531 L 375.117188 426.003906 C 345.09375 365.984375 284.757812 328.703125 217.644531 328.703125 L 141.894531 328.703125 C 137.515625 328.703125 133.464844 330.976562 131.152344 334.699219 C 128.84375 338.425781 128.640625 343.070312 130.597656 346.984375 L 148.550781 382.902344 C 178.570312 442.921875 238.90625 480.203125 306.019531 480.203125 L 377.84375 480.203125 L 419.644531 511.738281 L 419.644531 532.53125 C 394.128906 523.0625 367.453125 518.078125 340.15625 518.078125 C 291.007812 518.078125 242.289062 534.3125 202.949219 563.816406 L 181.273438 580.078125 L 177.890625 574.585938 C 174.265625 568.691406 166.566406 566.808594 160.644531 570.382812 L 97.519531 608.257812 C 94.628906 610 92.546875 612.800781 91.75 616.082031 C 90.957031 619.367188 91.496094 622.824219 93.265625 625.703125 L 194.265625 789.828125 C 196.652344 793.691406 200.792969 795.824219 205.035156 795.824219 C 207.242188 795.824219 209.488281 795.242188 211.523438 794.019531 L 274.648438 756.144531 C 277.539062 754.402344 279.621094 751.597656 280.417969 748.316406 C 281.210938 745.035156 280.667969 741.574219 278.902344 738.695312 L 274.253906 731.132812 L 275.933594 730.300781 C 295.628906 720.453125 318.785156 717.5625 340.285156 722.386719 L 426.902344 741.625 C 437.898438 744.074219 449.222656 745.324219 460.535156 745.324219 C 493.867188 745.324219 526.90625 734.316406 553.59375 714.304688 L 747.890625 568.574219 C 763.695312 556.722656 773.140625 537.835938 773.140625 518.078125 C 773.140625 490.226562 750.492188 467.578125 722.640625 467.578125 Z M 558.515625 454.953125 L 520.515625 454.953125 C 575.003906 415.664062 634.429688 384.683594 697.859375 362.664062 L 693.390625 371.601562 C 667.683594 423.011719 616 454.953125 558.515625 454.953125 Z M 646.890625 353.953125 L 649.972656 353.953125 C 603.851562 373.078125 560.007812 396.953125 518.773438 425.320312 C 546.144531 381.007812 594.03125 353.953125 646.890625 353.953125 Z M 345.75 425.320312 C 304.515625 396.941406 260.671875 373.078125 214.550781 353.953125 L 217.644531 353.953125 C 270.492188 353.953125 318.390625 381.007812 345.75 425.320312 Z M 171.148438 371.589844 L 166.679688 362.652344 C 230.105469 384.667969 289.542969 415.652344 344.019531 454.941406 L 306.019531 454.941406 C 248.539062 454.953125 196.851562 423.011719 171.148438 371.589844 Z M 381.769531 366.578125 L 381.769531 341.328125 L 482.769531 341.328125 L 482.769531 366.578125 Z M 306.019531 164.578125 C 306.019531 94.964844 362.65625 38.332031 432.269531 38.332031 C 501.882812 38.332031 558.515625 94.964844 558.515625 164.578125 C 558.515625 195.992188 546.890625 226.101562 525.792969 249.355469 C 508.09375 268.847656 494.496094 291.75 486.140625 316.078125 L 378.410156 316.078125 C 370.039062 291.75 356.457031 268.847656 338.757812 249.355469 C 317.648438 226.101562 306.019531 195.992188 306.019531 164.578125 Z M 396.71875 391.828125 L 467.808594 391.828125 C 462.582031 406.484375 448.695312 417.078125 432.257812 417.078125 C 415.820312 417.078125 401.945312 406.484375 396.71875 391.828125 Z M 209.226562 765.953125 L 121.46875 623.332031 L 162.941406 598.445312 L 250.710938 741.070312 Z M 732.742188 548.375 L 538.429688 694.105469 C 508.511719 716.527344 468.753906 725.113281 432.371094 716.980469 L 345.75 697.742188 C 318.65625 691.730469 289.445312 695.316406 264.621094 707.726562 L 260.949219 709.558594 L 194.554688 601.664062 L 218.101562 584.015625 C 253.097656 557.78125 296.4375 543.328125 340.15625 543.328125 C 366.164062 543.328125 391.578125 548.226562 415.703125 557.871094 C 433.46875 564.976562 452.152344 568.574219 471.265625 568.574219 L 520.644531 568.574219 C 534.566406 568.574219 545.890625 579.902344 545.890625 593.824219 C 545.890625 607.75 534.566406 619.074219 520.644531 619.074219 L 356.519531 619.074219 L 356.519531 644.324219 L 520.644531 644.324219 C 546.144531 644.324219 567.078125 625.25 570.449219 600.65625 L 707.492188 497.875 C 711.832031 494.621094 717.210938 492.828125 722.640625 492.828125 C 736.566406 492.828125 747.890625 504.152344 747.890625 518.078125 C 747.890625 529.929688 742.222656 541.253906 732.742188 548.375 Z M 732.742188 548.375 " fill-opacity="1" fill-rule="nonzero"/></g><path fill="#00adee" d="M 432.269531 202.453125 C 425.3125 202.453125 419.644531 196.796875 419.644531 189.828125 L 394.394531 189.828125 C 394.394531 206.265625 404.984375 220.15625 419.644531 225.382812 L 419.644531 240.328125 L 444.894531 240.328125 L 444.894531 225.382812 C 459.550781 220.15625 470.144531 206.265625 470.144531 189.828125 C 470.144531 168.949219 453.148438 151.957031 432.269531 151.957031 C 425.3125 151.957031 419.644531 146.300781 419.644531 139.332031 C 419.644531 132.363281 425.3125 126.707031 432.269531 126.707031 C 439.226562 126.707031 444.894531 132.363281 444.894531 139.332031 L 470.144531 139.332031 C 470.144531 122.894531 459.550781 109.003906 444.894531 103.777344 L 444.894531 88.832031 L 419.644531 88.832031 L 419.644531 103.777344 C 404.984375 109.003906 394.394531 122.894531 394.394531 139.332031 C 394.394531 160.210938 411.386719 177.203125 432.269531 177.203125 C 439.226562 177.203125 444.894531 182.859375 444.894531 189.828125 C 444.894531 196.796875 439.226562 202.453125 432.269531 202.453125 Z M 432.269531 202.453125 " fill-opacity="1" fill-rule="nonzero"/></svg>